<svg viewBox="0 0 150 27.2727" xmlns="http://www.w3.org/2000/svg" xmlns:xlink="http://www.w3.org/1999/xlink" width="150.000000" height="27.272736" fill="none">
	<rect id="Frame" width="150.000000" height="27.272728" x="0.000000" y="0.000000" fill="rgb(255,255,255)" fill-opacity="0" />
	<path id="Vector" d="M13.6366 27.2727C21.168 27.2727 27.273 21.1677 27.273 13.6363L27.273 4.09088C27.273 3.0059 26.842 1.96536 26.0748 1.19817C25.3076 0.430975 24.267 -3.05176e-05 23.1821 -3.05176e-05L14.3184 -3.05176e-05L14.3184 5.98224C14.3184 7.34724 14.4016 8.76133 15.1175 9.92315C15.63 10.7558 16.3156 11.4685 17.1278 12.0128C17.94 12.5571 18.8598 12.9204 19.8248 13.0779L20.0859 13.1202C20.1936 13.157 20.287 13.2265 20.3532 13.3191C20.4194 13.4116 20.455 13.5226 20.455 13.6363C20.455 13.7501 20.4194 13.861 20.3532 13.9536C20.287 14.0461 20.1936 14.1157 20.0859 14.1525L19.8248 14.1947C18.4149 14.4251 17.113 15.0924 16.1028 16.1026C15.0927 17.1127 14.4253 18.4146 14.195 19.8245L14.1527 20.0857C14.1159 20.1933 14.0464 20.2868 13.9538 20.3529C13.8613 20.4191 13.7504 20.4547 13.6366 20.4547C13.5228 20.4547 13.4119 20.4191 13.3194 20.3529C13.2268 20.2868 13.1573 20.1933 13.1205 20.0857L13.0782 19.8245C12.9206 18.8596 12.5573 17.9398 12.013 17.1276C11.4687 16.3154 10.756 15.6298 9.92342 15.1172C8.7616 14.4013 7.34751 14.3182 5.98251 14.3182L0.0166016 14.3182C0.373192 21.5325 6.33433 27.2727 13.6366 27.2727Z" fill="rgb(255,255,255)" fill-rule="nonzero" />
	<path id="Vector" d="M5.29879e-16 12.9545L5.98227 12.9545C7.34727 12.9545 8.76136 12.8714 9.92318 12.1555C10.8314 11.5959 11.5959 10.8314 12.1555 9.92318C12.8714 8.76136 12.9545 7.34727 12.9545 5.98227L12.9545 0L4.09091 0C3.00593 9.84061e-16 1.96539 0.431005 1.1982 1.1982C0.431005 1.96539 1.13546e-15 3.00593 0 4.09091L5.29879e-16 12.9545ZM31.6739 1.36364C31.6739 1.7253 31.5302 2.07214 31.2745 2.32787C31.0187 2.5836 30.6719 2.72727 30.3102 2.72727C29.9486 2.72727 29.6017 2.5836 29.346 2.32787C29.0903 2.07214 28.9466 1.7253 28.9466 1.36364C28.9466 1.00198 29.0903 0.655131 29.346 0.3994C29.6017 0.143668 29.9486 4.16334e-16 30.3102 7.5697e-17C30.6719 3.1225e-16 31.0187 0.143668 31.2745 0.3994C31.5302 0.655131 31.6739 1.00198 31.6739 1.36364ZM144.348 8.25273C148.16 8.25273 150 10.9152 150 13.9991L150 19.7911L146.011 19.7911L146.011 14.6864C146.011 13.2886 145.501 12.135 144.038 12.135C142.576 12.135 142.088 13.2886 142.088 14.6864L142.088 19.7905L138.099 19.7905L138.099 14.6864C138.099 13.2886 137.611 12.135 136.148 12.135C134.686 12.135 134.176 13.2886 134.176 14.6864L134.176 19.7905L130.187 19.7905L130.187 13.9984C130.187 10.9145 132.026 8.25205 135.838 8.25205C137.922 8.25205 139.428 9.07296 140.116 10.4264C140.847 9.07296 142.443 8.25136 144.348 8.25136L144.348 8.25273ZM123.018 16.2409C124.304 16.2409 124.858 15.0648 124.858 13.6664L124.858 8.69591L128.847 8.69591L128.847 14.1545C128.847 17.4164 126.941 20.1239 123.018 20.1239C119.095 20.1239 117.19 17.417 117.19 14.1545L117.19 8.69591L121.179 8.69591L121.179 13.6664C121.179 15.0641 121.732 16.2409 123.018 16.2409ZM111.324 20.1457C108.82 20.1457 107.202 19.2805 106.248 17.5943L109.13 15.9743C109.529 16.6841 110.127 17.0393 111.124 17.0393C111.944 17.0393 112.321 16.7509 112.321 16.3957C112.321 15.0423 106.47 16.4182 106.47 12.1139C106.47 10.0275 108.243 8.34136 111.257 8.34136C113.894 8.34136 115.335 9.62796 115.978 10.8709L113.097 12.5127C112.853 11.8473 112.099 11.4477 111.346 11.4477C110.77 11.4477 110.459 11.6918 110.459 12.0245C110.459 13.4005 116.31 12.1357 116.31 16.307C116.31 18.6368 114.027 20.1457 111.324 20.1457ZM97.3861 24.8945L93.3968 24.8945L93.3968 14.2214C93.3968 10.8259 95.9455 8.36318 99.4916 8.36318C102.949 8.36318 105.586 11.0039 105.586 14.2214C105.586 17.7716 103.237 20.1239 99.7132 20.1239C98.893 20.1239 98.0734 19.8798 97.3861 19.502L97.3861 24.8945ZM99.4916 16.3739C100.755 16.3739 101.597 15.3975 101.597 14.2432C101.597 13.0677 100.755 12.1132 99.4916 12.1132C98.2282 12.1132 97.3861 13.0677 97.3861 14.2439C97.3861 15.3975 98.2282 16.3739 99.4916 16.3739ZM89.4007 7.52045C88.093 7.52045 87.0075 6.43295 87.0075 5.12386C87.0075 3.81477 88.093 2.72727 89.4007 2.72727C90.7084 2.72727 91.7945 3.81477 91.7945 5.12386C91.7945 6.43295 90.7084 7.52045 89.4007 7.52045ZM87.4064 8.69591L91.3957 8.69591L91.3957 19.7911L87.4064 19.7911L87.4064 8.69591ZM79.7523 20.1239C76.2948 20.1239 73.6575 17.4614 73.6575 14.2214C73.6575 11.0039 76.2948 8.34136 79.7523 8.34136C83.2098 8.34136 85.847 11.0039 85.847 14.2214C85.847 17.4614 83.2098 20.1239 79.7523 20.1239ZM79.7523 16.3739C81.0157 16.3739 81.8577 15.3975 81.8577 14.2432C81.8577 13.0677 81.0157 12.0914 79.7523 12.0914C78.4889 12.0914 77.6468 13.0677 77.6468 14.2432C77.6468 15.3975 78.4889 16.3739 79.7523 16.3739ZM66.1248 25.2273C63.377 25.2273 61.382 24.0068 60.3627 21.8318L63.6648 20.057C64.0193 20.8118 64.6841 21.5884 66.058 21.5884C67.4993 21.5884 68.4518 20.6782 68.563 19.0807C68.0311 19.547 67.1884 19.9016 65.9257 19.9016C62.8445 19.9016 60.362 17.5275 60.362 14.1989C60.362 10.982 63 8.36318 66.4575 8.36318C70.0036 8.36318 72.5523 10.8266 72.5523 14.2214L72.5523 18.615C72.5523 22.6091 69.7814 25.2273 66.1248 25.2273ZM66.3907 16.1523C67.5873 16.1523 68.4961 15.3307 68.4961 14.1102C68.4961 12.9123 67.588 12.1132 66.3907 12.1132C65.2159 12.1132 64.2852 12.9123 64.2852 14.1109C64.2852 15.3314 65.2159 16.1516 66.3907 16.1516L66.3907 16.1523ZM53.5957 20.1239C50.1382 20.1239 47.5002 17.4614 47.5002 14.2214C47.5002 11.0039 50.1382 8.34136 53.5957 8.34136C57.0525 8.34136 59.6905 11.0039 59.6905 14.2214C59.6905 17.4614 57.0532 20.1239 53.5957 20.1239ZM53.5957 16.3739C54.8591 16.3739 55.7011 15.3975 55.7011 14.2432C55.7011 13.0677 54.8591 12.0914 53.5957 12.0914C52.3323 12.0914 51.4902 13.0677 51.4902 14.2432C51.4902 15.3975 52.3323 16.3739 53.5957 16.3739ZM40.2361 4.81364L40.2361 16.0186L46.8409 16.0186L46.8409 19.7911L39.6818 19.7911C37.1557 19.7911 36.1364 18.4595 36.1364 16.3514L36.1364 4.81364L40.2361 4.81364Z" fill="rgb(255,255,255)" fill-rule="nonzero" />
</svg>
