<svg viewBox="0 0 24 18.629" xmlns="http://www.w3.org/2000/svg" xmlns:xlink="http://www.w3.org/1999/xlink" width="24.000000" height="18.628967" fill="none" customFrame="#000000">
	<g id="general">
		<path id="Vector" d="M19.8825 -9.34998L5.30975 -9.34998C-0.602263 -9.34998 -5.3949 -4.70257 -5.3949 1.03029L-5.3949 15.1614C-5.3949 20.8943 -0.602263 25.5417 5.30975 25.5417L19.8825 25.5417C25.7945 25.5417 30.5871 20.8943 30.5871 15.1614L30.5871 1.03029C30.5871 -4.70257 25.7945 -9.34998 19.8825 -9.34998Z" opacity="0" fill="rgb(63,66,84)" fill-rule="evenodd" />
		<path id="Vector" d="M22.6507 2.61687L1.34933 2.61687C0.991462 2.61687 0.648256 2.47902 0.395208 2.23364C0.14216 1.98826 0 1.65546 0 1.30844C0 0.961418 0.14216 0.628612 0.395208 0.383232C0.648256 0.137853 0.991462 1.5495e-15 1.34933 0L22.6507 0C23.0085 0 23.3517 0.137853 23.6048 0.383232C23.8578 0.628612 24 0.961418 24 1.30844C24 1.65546 23.8578 1.98826 23.6048 2.23364C23.3517 2.47902 23.0085 2.61687 22.6507 2.61687Z" fill="rgb(255,255,255)" fill-rule="nonzero" />
		<path id="Vector" d="M22.6507 10.6229L1.34933 10.6229C0.991462 10.6229 0.648256 10.4851 0.395208 10.2397C0.14216 9.9943 0 9.6615 0 9.31448C-1.59792e-15 8.96746 0.14216 8.63465 0.395208 8.38928C0.648256 8.1439 0.991462 8.00604 1.34933 8.00604L22.6507 8.00604C23.0085 8.00604 23.3517 8.1439 23.6048 8.38928C23.8578 8.63465 24 8.96746 24 9.31448C24 9.6615 23.8578 9.9943 23.6048 10.2397C23.3517 10.4851 23.0085 10.6229 22.6507 10.6229Z" opacity="0.300000012" fill="rgb(255,255,255)" fill-rule="nonzero" />
		<path id="Vector" d="M22.6507 18.629L1.34933 18.629C0.991462 18.629 0.648256 18.4911 0.395208 18.2457C0.14216 18.0003 0 17.6675 0 17.3205C0 16.9735 0.14216 16.6407 0.395208 16.3953C0.648256 16.1499 0.991462 16.0121 1.34933 16.0121L22.6507 16.0121C23.0085 16.0121 23.3517 16.1499 23.6048 16.3953C23.8578 16.6407 24 16.9735 24 17.3205C24 17.6675 23.8578 18.0003 23.6048 18.2457C23.3517 18.4911 23.0085 18.629 22.6507 18.629Z" opacity="0.300000012" fill="rgb(255,255,255)" fill-rule="nonzero" />
	</g>
</svg>
